<svg xmlns="http://www.w3.org/2000/svg" width="38" height="38" viewBox="0 0 38 38">
    <g fill="none">
        <circle cx="19" cy="19" r="19" fill="#49CC68"/>
        <path fill="#FFF" d="M26.485 22.675c0-3.002-1.9-4.693-6.251-5.7v-5.377c1.418.307 2.753.916 3.914 1.786l1.615-2.603c-1.583-1.176-3.454-1.904-5.415-2.109V7h-2.489v1.615c-3.61.266-6.061 2.318-6.061 5.32 0 3.002 1.9 4.655 6.175 5.7v5.434c-1.875-.33-3.627-1.157-5.073-2.394L11 25.183c1.974 1.52 4.326 2.473 6.802 2.755v2.774h2.489v-2.717c3.724-.304 6.194-2.318 6.194-5.32zm-8.531-6.384c-2.204-.627-2.755-1.387-2.755-2.546 0-1.159.95-2.204 2.774-2.337l-.019 4.883zm5.13 6.517c0 1.33-1.026 2.261-2.85 2.394v-5.016c2.261.627 2.85 1.387 2.85 2.622z"/>
    </g>
</svg>
